<svg preserveAspectRatio="xMidYMid meet" viewBox="0 0 101.18 16.838" fill="none" xmlns="http://www.w3.org/2000/svg">
<g id="Group 48095863">
<path id="Vector" d="M0.000149749 9.42934C0.000149749 4.64269 3.21146 1.89988 6.85968 1.89988C7.67557 1.9087 8.48163 2.07883 9.23147 2.40049C9.98132 2.72203 10.6601 3.18864 11.2288 3.77348L9.4331 5.97909C8.77454 5.29754 7.87695 4.89823 6.92958 4.8654C5.08145 4.8654 3.55662 6.52499 3.55662 9.32451C3.55662 12.1241 4.86735 13.8404 6.90337 13.8404C7.42826 13.8297 7.94483 13.7073 8.41869 13.4814C8.89255 13.2555 9.31284 12.9312 9.65156 12.5303L11.4735 14.714C10.8973 15.3964 10.1756 15.9411 9.36139 16.3084C8.54715 16.6757 7.66101 16.8562 6.76793 16.8366C3.12844 16.8279 0.0263645 14.3253 0.0263645 9.45557L0.000149749 9.42934Z" fill="var(--fill-0, #06EEAC)"/>
<path id="Vector_2" d="M13.5444 2.14058H17.0004V7.63479H21.7453V2.14058H25.1706V16.5314H21.7453V10.6353H17.0091V16.5314H13.5444V2.14058Z" fill="var(--fill-0, #06EEAC)"/>
<path id="Vector_3" d="M31.1611 2.14058H35.2943L39.7595 16.5314H36.1113L35.2681 13.2557H31.0212L30.1737 16.5488H26.6521L31.113 2.158L31.1611 2.14058ZM34.6564 10.5741L34.3549 9.34685C33.9747 7.90562 33.5947 6.19356 33.2146 4.72174H33.1185C32.7646 6.2198 32.3844 7.90562 32.0043 9.34685L31.7029 10.5741H34.6564Z" fill="var(--fill-0, #06EEAC)"/>
<path id="Vector_4" d="M41.2532 2.14058H44.7485L48.3137 9.0499L49.7293 12.2338H49.8385C49.5937 10.474 49.4391 8.70283 49.3754 6.92735V2.16682H52.6654V16.5576H49.1701L45.6048 9.62204L44.1892 6.46439H44.08C44.246 8.07163 44.517 10.0282 44.517 11.7708V16.5314H41.227V2.14058H41.2532Z" fill="var(--fill-0, #06EEAC)"/>
<path id="Vector_5" d="M55.3791 9.42962C55.3791 4.62544 58.6166 1.89581 62.4527 1.89581C63.3059 1.88487 64.1527 2.04511 64.9428 2.36689C65.7331 2.68867 66.4508 3.16562 67.0534 3.76941L65.2314 5.97502C64.8814 5.62324 64.4655 5.34382 64.0075 5.15276C63.5495 4.96169 63.0583 4.86263 62.5619 4.86134C60.4429 4.86134 58.918 6.52092 58.918 9.32044C58.918 12.1201 60.1982 13.8364 62.8896 13.8364C63.3716 13.8473 63.846 13.7151 64.2528 13.4565V11.1417H61.9633V8.31593H67.3242V15.0331C65.995 16.1945 64.2835 16.8243 62.5183 16.8019C58.5467 16.8019 55.3878 14.2993 55.3878 9.42962H55.3791Z" fill="var(--fill-0, #06EEAC)"/>
<path id="Vector_6" d="M70.1814 2.14058H79.2998V5.02304H73.6199V7.68726H78.426V10.6003H73.6199V13.6576H79.5182V16.5706H70.1814V2.158V2.14058Z" fill="var(--fill-0, #06EEAC)"/>
<path id="Vector_7" d="M87.492 11.4695H85.8317V16.5314H82.3757V2.14058H87.6537C90.712 2.14058 93.2854 3.20192 93.2854 6.68275C93.2854 8.77471 92.3068 10.1374 90.8125 10.8449L94.0238 16.5576H90.1572L87.5357 11.4956L87.492 11.4695ZM87.3827 8.74848C89.0168 8.74848 89.9125 8.04104 89.9125 6.68275C89.9125 5.32447 89.0387 4.88774 87.3827 4.88774H85.8317V8.74848H87.3827Z" fill="var(--fill-0, #06EEAC)"/>
<path id="Vector_8" d="M97.5058 3.71683H95.2731V2.33667H97.5058V0.000108396H98.9476V2.33667H101.18V3.72554H98.9476V6.06645H97.5058V3.71683Z" fill="var(--fill-0, #06EEAC)"/>
</g>
</svg>
